<svg width="234" height="234" viewBox="0 0 234 234" fill="none" xmlns="http://www.w3.org/2000/svg">
<rect x="0.5" y="0.5" width="233" height="233" rx="19.5" fill="white"/>
<rect x="0.5" y="0.5" width="233" height="233" rx="19.5" stroke="#EAEAEA"/>
<g clip-path="url(#clip0_1_1307)">
<path d="M132.928 66.9817H101V87.005C101.047 87.1734 101.088 87.345 101.143 87.5109C101.52 88.655 102.584 89.4292 103.818 89.435C105.626 89.4434 107.435 89.4375 109.243 89.4375C116.157 89.4375 123.069 89.4384 129.982 89.4375C131.4 89.4367 132.498 88.635 132.837 87.3425C132.899 87.1042 132.933 86.8509 132.933 86.605C132.938 80.1392 132.938 73.6734 132.938 67.2075C132.938 67.1467 132.933 67.085 132.928 66.9817ZM112.08 81.6042C111.731 82.0384 111.169 82.0659 110.67 81.6667C109.177 80.4734 107.685 79.28 106.194 78.0842C105.583 77.5934 105.581 76.9559 106.192 76.4659C107.69 75.2634 109.19 74.0625 110.691 72.8642C111.172 72.4809 111.733 72.515 112.077 72.94C112.431 73.3759 112.343 73.9375 111.852 74.3334C110.734 75.2309 109.613 76.1234 108.494 77.0184C108.399 77.095 108.306 77.1725 108.181 77.2759C108.693 77.685 109.176 78.0734 109.659 78.46C110.389 79.0442 111.12 79.6259 111.848 80.2117C112.342 80.6092 112.432 81.1675 112.08 81.6042ZM120.583 71.2117C118.747 75.5042 116.908 79.795 115.068 84.085C114.867 84.5534 114.516 84.7875 114.088 84.7542C113.686 84.7234 113.317 84.4375 113.265 84.0275C113.235 83.7859 113.288 83.5075 113.384 83.2809C114.915 79.6817 116.459 76.0884 118 72.4934C118.302 71.7875 118.599 71.0792 118.909 70.3767C119.104 69.9359 119.542 69.7125 119.973 69.81C120.403 69.9067 120.713 70.2967 120.708 70.8209C120.683 70.8992 120.648 71.0617 120.583 71.2117ZM127.787 78.0517C126.265 79.2759 124.74 80.495 123.212 81.7092C122.753 82.075 122.183 82.0192 121.852 81.5975C121.517 81.1734 121.594 80.615 122.049 80.2484C123.182 79.3367 124.319 78.43 125.454 77.5217C125.543 77.45 125.629 77.3767 125.757 77.2709C125.013 76.6742 124.302 76.1042 123.59 75.5342C123.079 75.125 122.566 74.7192 122.058 74.3075C121.591 73.9275 121.513 73.3609 121.864 72.935C122.205 72.5209 122.763 72.48 123.227 72.8492C124.747 74.0592 126.263 75.2709 127.778 76.4875C128.342 76.9409 128.347 77.6017 127.787 78.0517Z" fill="#FF782D"/>
<path d="M132.937 60.5501C132.933 58.8292 131.732 57.6259 130.012 57.6259C121.322 57.6242 112.632 57.6242 103.942 57.6251C102.451 57.6259 101.397 58.4634 101.052 59.9134C101.041 59.9634 101.017 60.0101 101 60.0576V65.1101H132.922C132.928 64.9909 132.937 64.8909 132.937 64.7909C132.937 63.3776 132.94 61.9634 132.937 60.5501ZM105.737 63.2376C105.232 63.2359 104.808 62.8126 104.806 62.3067C104.803 61.7901 105.243 61.3576 105.76 61.3684C106.266 61.3792 106.682 61.8092 106.675 62.3142C106.668 62.8201 106.242 63.2401 105.737 63.2376ZM109.472 63.2376C108.967 63.2309 108.547 62.8042 108.549 62.2992C108.551 61.7934 108.974 61.3701 109.479 61.3684C109.985 61.3667 110.412 61.7859 110.417 62.2917C110.424 62.8092 109.989 63.2442 109.472 63.2376ZM113.221 63.2376C112.716 63.2351 112.293 62.8117 112.292 62.3059C112.29 61.7884 112.729 61.3567 113.247 61.3684C113.752 61.3801 114.167 61.8101 114.161 62.3151C114.153 62.8209 113.726 63.2401 113.221 63.2376ZM128.068 63.2384C127.176 63.2401 126.283 63.2392 125.39 63.2392C124.497 63.2392 123.605 63.2401 122.712 63.2384C122.079 63.2376 121.653 62.8651 121.648 62.3109C121.643 61.7567 122.071 61.3684 122.696 61.3684C124.492 61.3667 126.287 61.3667 128.082 61.3684C128.71 61.3684 129.136 61.7542 129.131 62.3101C129.127 62.8659 128.703 63.2376 128.068 63.2384Z" fill="#FF782D"/>
</g>
<path d="M56.38 132.5V117.74H62.48C63.44 117.74 64.24 117.913 64.88 118.26C65.5333 118.593 66.0533 119.087 66.44 119.74C66.8267 120.38 67.1 121.153 67.26 122.06C67.4333 122.967 67.52 123.987 67.52 125.12C67.52 126.747 67.3333 128.107 66.96 129.2C66.5867 130.28 66.0267 131.1 65.28 131.66C64.5333 132.22 63.6 132.5 62.48 132.5H56.38ZM58.84 130.28H62.24C62.92 130.28 63.46 130.08 63.86 129.68C64.2733 129.28 64.5733 128.693 64.76 127.92C64.96 127.147 65.06 126.213 65.06 125.12C65.06 124.107 65 123.267 64.88 122.6C64.76 121.933 64.5867 121.407 64.36 121.02C64.1333 120.633 63.84 120.36 63.48 120.2C63.1333 120.04 62.72 119.96 62.24 119.96H58.84V130.28ZM73.9603 132.6C72.8003 132.6 71.8736 132.44 71.1803 132.12C70.5003 131.8 70.007 131.247 69.7003 130.46C69.3936 129.66 69.2403 128.553 69.2403 127.14C69.2403 125.7 69.387 124.587 69.6803 123.8C69.9736 123 70.4603 122.44 71.1403 122.12C71.8203 121.8 72.7403 121.64 73.9003 121.64C74.927 121.64 75.747 121.747 76.3603 121.96C76.987 122.16 77.4403 122.527 77.7203 123.06C78.0136 123.58 78.1603 124.32 78.1603 125.28C78.1603 125.96 78.027 126.507 77.7603 126.92C77.4936 127.32 77.107 127.607 76.6003 127.78C76.107 127.953 75.5203 128.04 74.8403 128.04H71.7003C71.727 128.707 71.8136 129.24 71.9603 129.64C72.1203 130.027 72.4003 130.307 72.8003 130.48C73.2136 130.653 73.8136 130.74 74.6003 130.74H77.8403V132.2C77.2936 132.307 76.7136 132.4 76.1003 132.48C75.5003 132.56 74.787 132.6 73.9603 132.6ZM71.6803 126.54H74.6003C75.067 126.54 75.407 126.453 75.6203 126.28C75.847 126.093 75.9603 125.76 75.9603 125.28C75.9603 124.813 75.8936 124.447 75.7603 124.18C75.627 123.913 75.407 123.727 75.1003 123.62C74.7936 123.5 74.3936 123.44 73.9003 123.44C73.3403 123.44 72.9003 123.527 72.5803 123.7C72.2603 123.873 72.027 124.187 71.8803 124.64C71.747 125.08 71.6803 125.713 71.6803 126.54ZM82.9463 132.5L79.2063 121.78H81.7463L84.4263 130.2L87.1663 121.78H89.6863L85.7863 132.5H82.9463ZM95.2298 132.6C94.0698 132.6 93.1432 132.44 92.4498 132.12C91.7698 131.8 91.2765 131.247 90.9698 130.46C90.6632 129.66 90.5098 128.553 90.5098 127.14C90.5098 125.7 90.6565 124.587 90.9498 123.8C91.2432 123 91.7298 122.44 92.4098 122.12C93.0898 121.8 94.0098 121.64 95.1698 121.64C96.1965 121.64 97.0165 121.747 97.6298 121.96C98.2565 122.16 98.7098 122.527 98.9898 123.06C99.2832 123.58 99.4298 124.32 99.4298 125.28C99.4298 125.96 99.2965 126.507 99.0298 126.92C98.7632 127.32 98.3765 127.607 97.8698 127.78C97.3765 127.953 96.7898 128.04 96.1098 128.04H92.9698C92.9965 128.707 93.0832 129.24 93.2298 129.64C93.3898 130.027 93.6698 130.307 94.0698 130.48C94.4832 130.653 95.0832 130.74 95.8698 130.74H99.1098V132.2C98.5632 132.307 97.9832 132.4 97.3698 132.48C96.7698 132.56 96.0565 132.6 95.2298 132.6ZM92.9498 126.54H95.8698C96.3365 126.54 96.6765 126.453 96.8898 126.28C97.1165 126.093 97.2298 125.76 97.2298 125.28C97.2298 124.813 97.1632 124.447 97.0298 124.18C96.8965 123.913 96.6765 123.727 96.3698 123.62C96.0632 123.5 95.6632 123.44 95.1698 123.44C94.6098 123.44 94.1698 123.527 93.8498 123.7C93.5298 123.873 93.2965 124.187 93.1498 124.64C93.0165 125.08 92.9498 125.713 92.9498 126.54ZM104.811 132.54C104.104 132.54 103.511 132.42 103.031 132.18C102.564 131.94 102.211 131.567 101.971 131.06C101.744 130.553 101.631 129.88 101.631 129.04V117.24H104.111V128.7C104.111 129.18 104.158 129.553 104.251 129.82C104.358 130.087 104.504 130.28 104.691 130.4C104.878 130.507 105.104 130.58 105.371 130.62L106.271 130.74V132.54H104.811ZM112.224 132.6C111.384 132.6 110.658 132.513 110.044 132.34C109.431 132.167 108.931 131.873 108.544 131.46C108.158 131.047 107.871 130.487 107.684 129.78C107.498 129.073 107.404 128.187 107.404 127.12C107.404 126.013 107.498 125.107 107.684 124.4C107.871 123.68 108.158 123.12 108.544 122.72C108.944 122.307 109.451 122.027 110.064 121.88C110.678 121.72 111.398 121.64 112.224 121.64C113.078 121.64 113.811 121.727 114.424 121.9C115.038 122.06 115.538 122.34 115.924 122.74C116.311 123.14 116.598 123.7 116.784 124.42C116.971 125.127 117.064 126.027 117.064 127.12C117.064 128.2 116.971 129.1 116.784 129.82C116.611 130.527 116.331 131.087 115.944 131.5C115.558 131.9 115.058 132.187 114.444 132.36C113.831 132.52 113.091 132.6 112.224 132.6ZM112.224 130.62C112.638 130.62 112.991 130.587 113.284 130.52C113.578 130.44 113.818 130.287 114.004 130.06C114.204 129.82 114.351 129.467 114.444 129C114.538 128.52 114.584 127.887 114.584 127.1C114.584 126.327 114.538 125.707 114.444 125.24C114.351 124.773 114.204 124.427 114.004 124.2C113.818 123.96 113.578 123.807 113.284 123.74C112.991 123.66 112.638 123.62 112.224 123.62C111.824 123.62 111.478 123.66 111.184 123.74C110.891 123.807 110.651 123.96 110.464 124.2C110.278 124.427 110.131 124.773 110.024 125.24C109.931 125.707 109.884 126.327 109.884 127.1C109.884 127.887 109.931 128.52 110.024 129C110.131 129.467 110.278 129.82 110.464 130.06C110.651 130.287 110.891 130.44 111.184 130.52C111.478 130.587 111.824 130.62 112.224 130.62ZM119.268 137.24V121.78H121.328L121.748 122.84C122.001 122.64 122.294 122.447 122.628 122.26C122.961 122.073 123.321 121.927 123.708 121.82C124.094 121.7 124.494 121.64 124.908 121.64C125.588 121.64 126.168 121.773 126.648 122.04C127.141 122.307 127.541 122.687 127.848 123.18C128.154 123.66 128.374 124.24 128.508 124.92C128.654 125.587 128.728 126.327 128.728 127.14C128.728 128.313 128.601 129.313 128.348 130.14C128.108 130.953 127.708 131.573 127.148 132C126.601 132.427 125.854 132.64 124.908 132.64C124.374 132.64 123.828 132.567 123.268 132.42C122.721 132.273 122.214 132.08 121.748 131.84V137.24H119.268ZM124.128 130.6C124.514 130.6 124.868 130.5 125.188 130.3C125.508 130.087 125.761 129.733 125.948 129.24C126.148 128.747 126.248 128.047 126.248 127.14C126.248 126.273 126.154 125.58 125.968 125.06C125.781 124.54 125.528 124.173 125.208 123.96C124.901 123.747 124.548 123.64 124.148 123.64C123.654 123.64 123.208 123.72 122.808 123.88C122.408 124.027 122.054 124.18 121.748 124.34V129.94C122.094 130.14 122.474 130.3 122.888 130.42C123.301 130.54 123.714 130.6 124.128 130.6ZM130.928 132.5V121.78H132.948L133.408 122.9C133.901 122.553 134.441 122.253 135.028 122C135.628 121.733 136.335 121.6 137.148 121.6C137.815 121.6 138.375 121.747 138.828 122.04C139.295 122.32 139.641 122.687 139.868 123.14C140.175 122.9 140.541 122.667 140.968 122.44C141.408 122.2 141.875 122 142.368 121.84C142.861 121.68 143.348 121.6 143.828 121.6C144.655 121.6 145.315 121.767 145.808 122.1C146.315 122.42 146.675 122.873 146.888 123.46C147.101 124.033 147.208 124.7 147.208 125.46V132.5H144.728V125.66C144.728 125.273 144.655 124.947 144.508 124.68C144.361 124.413 144.155 124.207 143.888 124.06C143.635 123.913 143.321 123.84 142.948 123.84C142.468 123.84 141.981 123.933 141.488 124.12C141.008 124.307 140.568 124.533 140.168 124.8C140.221 124.933 140.255 125.08 140.268 125.24C140.295 125.4 140.308 125.56 140.308 125.72V132.5H137.828V125.66C137.828 125.273 137.755 124.947 137.608 124.68C137.461 124.413 137.255 124.207 136.988 124.06C136.735 123.913 136.421 123.84 136.048 123.84C135.701 123.84 135.375 123.873 135.068 123.94C134.775 124.007 134.495 124.107 134.228 124.24C133.961 124.373 133.688 124.533 133.408 124.72V132.5H130.928ZM154.038 132.6C152.878 132.6 151.952 132.44 151.258 132.12C150.578 131.8 150.085 131.247 149.778 130.46C149.472 129.66 149.318 128.553 149.318 127.14C149.318 125.7 149.465 124.587 149.758 123.8C150.052 123 150.538 122.44 151.218 122.12C151.898 121.8 152.818 121.64 153.978 121.64C155.005 121.64 155.825 121.747 156.438 121.96C157.065 122.16 157.518 122.527 157.798 123.06C158.092 123.58 158.238 124.32 158.238 125.28C158.238 125.96 158.105 126.507 157.838 126.92C157.572 127.32 157.185 127.607 156.678 127.78C156.185 127.953 155.598 128.04 154.918 128.04H151.778C151.805 128.707 151.892 129.24 152.038 129.64C152.198 130.027 152.478 130.307 152.878 130.48C153.292 130.653 153.892 130.74 154.678 130.74H157.918V132.2C157.372 132.307 156.792 132.4 156.178 132.48C155.578 132.56 154.865 132.6 154.038 132.6ZM151.758 126.54H154.678C155.145 126.54 155.485 126.453 155.698 126.28C155.925 126.093 156.038 125.76 156.038 125.28C156.038 124.813 155.972 124.447 155.838 124.18C155.705 123.913 155.485 123.727 155.178 123.62C154.872 123.5 154.472 123.44 153.978 123.44C153.418 123.44 152.978 123.527 152.658 123.7C152.338 123.873 152.105 124.187 151.958 124.64C151.825 125.08 151.758 125.713 151.758 126.54ZM160.44 132.5V121.78H162.46L162.92 122.9C163.36 122.567 163.893 122.267 164.52 122C165.16 121.733 165.82 121.6 166.5 121.6C167.34 121.6 168 121.773 168.48 122.12C168.96 122.453 169.3 122.907 169.5 123.48C169.713 124.053 169.82 124.68 169.82 125.36V132.5H167.34V125.66C167.34 125.273 167.266 124.947 167.12 124.68C166.973 124.413 166.766 124.207 166.5 124.06C166.246 123.913 165.933 123.84 165.56 123.84C165.213 123.84 164.886 123.873 164.58 123.94C164.286 124.007 164.006 124.107 163.74 124.24C163.473 124.373 163.2 124.533 162.92 124.72V132.5H160.44ZM176.195 132.5C175.422 132.5 174.788 132.387 174.295 132.16C173.802 131.92 173.442 131.527 173.215 130.98C173.002 130.433 172.902 129.713 172.915 128.82L172.995 123.78H171.315V122.18L173.075 121.78L173.435 118.78H175.375V121.78H178.095V123.78H175.375V128.8C175.375 129.147 175.408 129.433 175.475 129.66C175.542 129.873 175.635 130.047 175.755 130.18C175.888 130.3 176.028 130.387 176.175 130.44C176.322 130.493 176.475 130.527 176.635 130.54L177.975 130.68V132.5H176.195Z" fill="#FF782D"/>
<path d="M78.054 163.29V162.3C78.462 162.3 78.822 162.246 79.134 162.138C79.446 162.018 79.71 161.862 79.926 161.67C80.142 161.466 80.304 161.232 80.412 160.968C80.532 160.704 80.592 160.422 80.592 160.122C80.592 159.726 80.52 159.378 80.376 159.078C80.232 158.766 80.016 158.526 79.728 158.358C79.452 158.19 79.104 158.106 78.684 158.106C78.096 158.106 77.598 158.292 77.19 158.664C76.782 159.024 76.578 159.48 76.578 160.032H75.12C75.12 159.372 75.27 158.796 75.57 158.304C75.882 157.812 76.302 157.428 76.83 157.152C77.37 156.864 77.982 156.72 78.666 156.72C79.386 156.72 80.004 156.876 80.52 157.188C81.048 157.5 81.45 157.908 81.726 158.412C82.014 158.916 82.158 159.468 82.158 160.068C82.158 160.656 81.984 161.196 81.636 161.688C81.288 162.18 80.808 162.57 80.196 162.858C79.584 163.146 78.87 163.29 78.054 163.29ZM78.594 169.68C77.982 169.68 77.43 169.59 76.938 169.41C76.446 169.23 76.026 168.984 75.678 168.672C75.33 168.348 75.06 167.976 74.868 167.556C74.676 167.124 74.58 166.662 74.58 166.17H76.128C76.128 166.566 76.23 166.92 76.434 167.232C76.65 167.544 76.944 167.79 77.316 167.97C77.688 168.15 78.114 168.24 78.594 168.24C79.074 168.24 79.488 168.15 79.836 167.97C80.196 167.778 80.472 167.514 80.664 167.178C80.856 166.842 80.952 166.446 80.952 165.99C80.952 165.606 80.874 165.27 80.718 164.982C80.574 164.682 80.37 164.436 80.106 164.244C79.842 164.04 79.536 163.89 79.188 163.794C78.84 163.698 78.462 163.65 78.054 163.65V162.66C78.666 162.66 79.236 162.726 79.764 162.858C80.304 162.99 80.778 163.2 81.186 163.488C81.606 163.764 81.93 164.124 82.158 164.568C82.398 165.012 82.518 165.546 82.518 166.17C82.518 166.878 82.344 167.496 81.996 168.024C81.66 168.552 81.198 168.96 80.61 169.248C80.022 169.536 79.35 169.68 78.594 169.68ZM84.7662 159.942C84.7662 159.342 84.9162 158.802 85.2162 158.322C85.5282 157.83 85.9422 157.44 86.4582 157.152C86.9862 156.864 87.5802 156.72 88.2402 156.72C88.9002 156.72 89.4882 156.864 90.0042 157.152C90.5322 157.44 90.9462 157.83 91.2462 158.322C91.5582 158.802 91.7142 159.342 91.7142 159.942C91.7142 160.434 91.6302 160.878 91.4622 161.274C91.2942 161.658 91.0542 161.988 90.7422 162.264C90.4422 162.54 90.0762 162.75 89.6442 162.894C89.2242 163.038 88.7562 163.11 88.2402 163.11C87.7242 163.11 87.2502 163.038 86.8182 162.894C86.3982 162.75 86.0322 162.54 85.7202 162.264C85.4202 161.988 85.1862 161.658 85.0182 161.274C84.8502 160.878 84.7662 160.434 84.7662 159.942ZM86.2242 160.122C86.2242 160.518 86.3142 160.866 86.4942 161.166C86.6862 161.466 86.9322 161.7 87.2322 161.868C87.5442 162.036 87.8802 162.12 88.2402 162.12C88.6002 162.12 88.9302 162.036 89.2302 161.868C89.5422 161.7 89.7882 161.466 89.9682 161.166C90.1602 160.866 90.2562 160.518 90.2562 160.122C90.2562 159.726 90.1662 159.372 89.9862 159.06C89.8182 158.748 89.5842 158.508 89.2842 158.34C88.9842 158.16 88.6362 158.07 88.2402 158.07C87.8562 158.07 87.5082 158.16 87.1962 158.34C86.8962 158.508 86.6562 158.748 86.4762 159.06C86.3082 159.372 86.2242 159.726 86.2242 160.122ZM84.3162 166.08C84.3162 165.504 84.4182 164.994 84.6222 164.55C84.8382 164.094 85.1262 163.716 85.4862 163.416C85.8582 163.104 86.2782 162.87 86.7462 162.714C87.2262 162.558 87.7242 162.48 88.2402 162.48C88.7562 162.48 89.2482 162.558 89.7162 162.714C90.1962 162.87 90.6162 163.104 90.9762 163.416C91.3482 163.716 91.6362 164.094 91.8402 164.55C92.0562 164.994 92.1642 165.504 92.1642 166.08C92.1642 166.572 92.0622 167.034 91.8582 167.466C91.6662 167.898 91.3902 168.282 91.0302 168.618C90.6822 168.954 90.2682 169.218 89.7882 169.41C89.3202 169.59 88.8042 169.68 88.2402 169.68C87.6762 169.68 87.1542 169.59 86.6742 169.41C86.2062 169.218 85.7922 168.954 85.4322 168.618C85.0842 168.282 84.8082 167.898 84.6042 167.466C84.4122 167.034 84.3162 166.572 84.3162 166.08ZM85.7742 165.9C85.7742 166.416 85.8882 166.854 86.1162 167.214C86.3562 167.574 86.6622 167.85 87.0342 168.042C87.4182 168.234 87.8202 168.33 88.2402 168.33C88.6602 168.33 89.0562 168.234 89.4282 168.042C89.8122 167.85 90.1182 167.574 90.3462 167.214C90.5862 166.854 90.7062 166.416 90.7062 165.9C90.7062 165.444 90.5862 165.036 90.3462 164.676C90.1182 164.304 89.8122 164.01 89.4282 163.794C89.0562 163.578 88.6602 163.47 88.2402 163.47C87.8202 163.47 87.4182 163.578 87.0342 163.794C86.6622 164.01 86.3562 164.304 86.1162 164.676C85.8882 165.036 85.7742 165.444 85.7742 165.9ZM100.889 163.2C100.889 164.172 101.105 165.03 101.537 165.774C101.981 166.518 102.557 167.1 103.265 167.52C103.973 167.94 104.741 168.15 105.569 168.15C106.169 168.15 106.715 168.072 107.207 167.916C107.711 167.76 108.167 167.544 108.575 167.268C108.983 166.98 109.331 166.65 109.619 166.278V168.294C109.091 168.762 108.515 169.11 107.891 169.338C107.267 169.566 106.493 169.68 105.569 169.68C104.693 169.68 103.871 169.524 103.103 169.212C102.347 168.888 101.681 168.438 101.105 167.862C100.529 167.274 100.079 166.584 99.7548 165.792C99.4308 165 99.2688 164.136 99.2688 163.2C99.2688 162.264 99.4308 161.4 99.7548 160.608C100.079 159.816 100.529 159.132 101.105 158.556C101.681 157.968 102.347 157.518 103.103 157.206C103.871 156.882 104.693 156.72 105.569 156.72C106.493 156.72 107.267 156.834 107.891 157.062C108.515 157.29 109.091 157.638 109.619 158.106V160.122C109.331 159.75 108.983 159.426 108.575 159.15C108.167 158.862 107.711 158.64 107.207 158.484C106.715 158.328 106.169 158.25 105.569 158.25C104.741 158.25 103.973 158.46 103.265 158.88C102.557 159.3 101.981 159.882 101.537 160.626C101.105 161.358 100.889 162.216 100.889 163.2ZM111.501 165.36C111.501 164.52 111.687 163.776 112.059 163.128C112.443 162.48 112.959 161.97 113.607 161.598C114.255 161.226 114.981 161.04 115.785 161.04C116.601 161.04 117.327 161.226 117.963 161.598C118.611 161.97 119.121 162.48 119.493 163.128C119.877 163.776 120.069 164.52 120.069 165.36C120.069 166.188 119.877 166.932 119.493 167.592C119.121 168.24 118.611 168.75 117.963 169.122C117.327 169.494 116.601 169.68 115.785 169.68C114.981 169.68 114.255 169.494 113.607 169.122C112.959 168.75 112.443 168.24 112.059 167.592C111.687 166.932 111.501 166.188 111.501 165.36ZM112.959 165.36C112.959 165.936 113.079 166.446 113.319 166.89C113.571 167.334 113.907 167.688 114.327 167.952C114.759 168.204 115.245 168.33 115.785 168.33C116.325 168.33 116.805 168.204 117.225 167.952C117.657 167.688 117.993 167.334 118.233 166.89C118.485 166.446 118.611 165.936 118.611 165.36C118.611 164.784 118.485 164.274 118.233 163.83C117.993 163.374 117.657 163.02 117.225 162.768C116.805 162.516 116.325 162.39 115.785 162.39C115.245 162.39 114.759 162.516 114.327 162.768C113.907 163.02 113.571 163.374 113.319 163.83C113.079 164.274 112.959 164.784 112.959 165.36ZM123.487 166.26C123.487 166.92 123.637 167.43 123.937 167.79C124.237 168.15 124.675 168.33 125.251 168.33C125.671 168.33 126.037 168.246 126.349 168.078C126.673 167.898 126.919 167.652 127.087 167.34C127.267 167.028 127.357 166.668 127.357 166.26V161.22H128.797V169.5H127.357V168.204C127.081 168.696 126.739 169.068 126.331 169.32C125.923 169.56 125.443 169.68 124.891 169.68C124.027 169.68 123.337 169.386 122.821 168.798C122.305 168.21 122.047 167.424 122.047 166.44V161.22H123.487V166.26ZM132.944 161.22V169.5H131.504V161.22H132.944ZM135.446 162.804C135.254 162.66 135.08 162.558 134.924 162.498C134.768 162.426 134.57 162.39 134.33 162.39C133.97 162.39 133.688 162.48 133.484 162.66C133.28 162.84 133.136 163.086 133.052 163.398C132.98 163.71 132.944 164.064 132.944 164.46H132.296C132.296 163.8 132.41 163.218 132.638 162.714C132.878 162.198 133.184 161.79 133.556 161.49C133.928 161.19 134.306 161.04 134.69 161.04C134.99 161.04 135.266 161.082 135.518 161.166C135.782 161.238 136.022 161.388 136.238 161.616L135.446 162.804ZM138.016 166.962C138.184 167.214 138.376 167.448 138.592 167.664C138.808 167.88 139.054 168.054 139.33 168.186C139.618 168.306 139.93 168.366 140.266 168.366C140.674 168.366 140.992 168.276 141.22 168.096C141.46 167.904 141.58 167.646 141.58 167.322C141.58 167.034 141.484 166.794 141.292 166.602C141.112 166.398 140.878 166.23 140.59 166.098C140.302 165.954 139.996 165.822 139.672 165.702C139.312 165.558 138.946 165.39 138.574 165.198C138.214 164.994 137.908 164.736 137.656 164.424C137.416 164.1 137.296 163.698 137.296 163.218C137.296 162.726 137.422 162.318 137.674 161.994C137.938 161.67 138.274 161.43 138.682 161.274C139.102 161.118 139.534 161.04 139.978 161.04C140.422 161.04 140.836 161.112 141.22 161.256C141.616 161.4 141.964 161.592 142.264 161.832C142.564 162.072 142.798 162.348 142.966 162.66L141.814 163.398C141.586 163.086 141.298 162.828 140.95 162.624C140.614 162.42 140.23 162.318 139.798 162.318C139.498 162.318 139.24 162.384 139.024 162.516C138.808 162.648 138.7 162.852 138.7 163.128C138.7 163.344 138.784 163.536 138.952 163.704C139.12 163.872 139.336 164.022 139.6 164.154C139.864 164.286 140.14 164.412 140.428 164.532C140.908 164.724 141.346 164.934 141.742 165.162C142.138 165.378 142.45 165.642 142.678 165.954C142.918 166.266 143.038 166.668 143.038 167.16C143.038 167.88 142.774 168.48 142.246 168.96C141.73 169.44 141.046 169.68 140.194 169.68C139.642 169.68 139.144 169.584 138.7 169.392C138.256 169.188 137.878 168.93 137.566 168.618C137.266 168.306 137.038 167.988 136.882 167.664L138.016 166.962ZM148.138 169.68C147.37 169.68 146.686 169.5 146.086 169.14C145.498 168.768 145.036 168.258 144.7 167.61C144.376 166.962 144.214 166.212 144.214 165.36C144.214 164.496 144.382 163.74 144.718 163.092C145.066 162.444 145.546 161.94 146.158 161.58C146.782 161.22 147.502 161.04 148.318 161.04C149.134 161.04 149.83 161.214 150.406 161.562C150.994 161.898 151.444 162.384 151.756 163.02C152.068 163.656 152.224 164.412 152.224 165.288C152.224 165.372 152.218 165.462 152.206 165.558C152.206 165.642 152.206 165.696 152.206 165.72H145.132V164.496H151.072L150.496 165.324C150.532 165.264 150.568 165.174 150.604 165.054C150.64 164.922 150.658 164.814 150.658 164.73C150.658 164.238 150.556 163.812 150.352 163.452C150.16 163.092 149.89 162.81 149.542 162.606C149.194 162.402 148.786 162.3 148.318 162.3C147.766 162.3 147.292 162.42 146.896 162.66C146.512 162.888 146.212 163.224 145.996 163.668C145.792 164.1 145.684 164.634 145.672 165.27C145.672 165.918 145.774 166.47 145.978 166.926C146.182 167.382 146.482 167.73 146.878 167.97C147.274 168.21 147.754 168.33 148.318 168.33C148.882 168.33 149.38 168.21 149.812 167.97C150.244 167.718 150.61 167.34 150.91 166.836L152.08 167.574C151.648 168.27 151.102 168.798 150.442 169.158C149.794 169.506 149.026 169.68 148.138 169.68ZM154.54 166.962C154.708 167.214 154.9 167.448 155.116 167.664C155.332 167.88 155.578 168.054 155.854 168.186C156.142 168.306 156.454 168.366 156.79 168.366C157.198 168.366 157.516 168.276 157.744 168.096C157.984 167.904 158.104 167.646 158.104 167.322C158.104 167.034 158.008 166.794 157.816 166.602C157.636 166.398 157.402 166.23 157.114 166.098C156.826 165.954 156.52 165.822 156.196 165.702C155.836 165.558 155.47 165.39 155.098 165.198C154.738 164.994 154.432 164.736 154.18 164.424C153.94 164.1 153.82 163.698 153.82 163.218C153.82 162.726 153.946 162.318 154.198 161.994C154.462 161.67 154.798 161.43 155.206 161.274C155.626 161.118 156.058 161.04 156.502 161.04C156.946 161.04 157.36 161.112 157.744 161.256C158.14 161.4 158.488 161.592 158.788 161.832C159.088 162.072 159.322 162.348 159.49 162.66L158.338 163.398C158.11 163.086 157.822 162.828 157.474 162.624C157.138 162.42 156.754 162.318 156.322 162.318C156.022 162.318 155.764 162.384 155.548 162.516C155.332 162.648 155.224 162.852 155.224 163.128C155.224 163.344 155.308 163.536 155.476 163.704C155.644 163.872 155.86 164.022 156.124 164.154C156.388 164.286 156.664 164.412 156.952 164.532C157.432 164.724 157.87 164.934 158.266 165.162C158.662 165.378 158.974 165.642 159.202 165.954C159.442 166.266 159.562 166.668 159.562 167.16C159.562 167.88 159.298 168.48 158.77 168.96C158.254 169.44 157.57 169.68 156.718 169.68C156.166 169.68 155.668 169.584 155.224 169.392C154.78 169.188 154.402 168.93 154.09 168.618C153.79 168.306 153.562 167.988 153.406 167.664L154.54 166.962Z" fill="#555555"/>
<defs>
<clipPath id="clip0_1_1307">
<rect width="32" height="32" fill="white" transform="translate(101 57.5)"/>
</clipPath>
</defs>
</svg>
