<svg xmlns="http://www.w3.org/2000/svg" width="10" height="18" viewBox="0 0 10 18" fill="none">
  <path d="M6.86185 4.78734C6.85151 5.3906 6.85967 5.99332 6.85967 6.6178C6.94562 6.62161 7.01688 6.62813 7.08868 6.62813C7.79421 6.62868 8.50029 6.62759 9.20636 6.62868C9.63392 6.62977 9.73945 6.73475 9.73999 7.1547C9.74108 7.96249 9.74162 8.77029 9.73999 9.57808C9.7389 9.95233 9.64588 10.047 9.26946 10.0486C8.54979 10.0519 7.83066 10.0497 7.11099 10.0497H6.86076V16.6763C6.86076 17.2753 6.80201 17.3329 6.19331 17.3329C5.41924 17.3329 4.64572 17.3335 3.87219 17.3324C3.44246 17.3318 3.34291 17.2334 3.34236 16.8069C3.34182 14.6555 3.34236 12.5035 3.34236 10.3516V10.0872C3.25968 10.0823 3.18842 10.0747 3.11716 10.0747C2.52695 10.0736 1.9362 10.0753 1.346 10.0736C0.936387 10.072 0.837384 9.97681 0.836296 9.57101C0.833032 8.77681 0.833577 7.98262 0.835752 7.18842C0.83684 6.7663 0.933667 6.67165 1.35089 6.67111C1.93457 6.67056 2.51825 6.67111 3.10193 6.67111H3.34236C3.34236 6.57047 3.34128 6.49105 3.34236 6.41163C3.35651 5.63811 3.32876 4.86132 3.39404 4.09269C3.55941 2.15779 5.04717 0.757068 6.99131 0.684176C7.80455 0.653714 8.61941 0.671121 9.43428 0.673297C9.70355 0.674385 9.81887 0.790794 9.8205 1.06169C9.82485 1.86949 9.82485 2.67728 9.8205 3.48508C9.81887 3.75978 9.70572 3.86857 9.41089 3.87565C8.86148 3.8887 8.31153 3.88925 7.76212 3.89741C7.12459 3.9072 6.87327 4.14818 6.86185 4.78734Z" fill="#555555"/>
</svg>