<svg xmlns="http://www.w3.org/2000/svg" width="18" height="18" viewBox="0 0 18 18" fill="none">
  <path d="M17.3293 5.30975C17.3179 3.51344 16.517 2.1504 14.9673 1.24307C14.2853 0.843621 13.5317 0.670797 12.7413 0.670389C10.2464 0.668351 7.75142 0.662237 5.25647 0.672019C3.22578 0.679764 1.52932 1.91929 0.886938 3.85501C0.792373 4.14033 0.757727 4.44604 0.695771 4.74237C0.684765 4.79495 0.675798 4.84794 0.666016 4.90052V13.1024C0.710852 13.3518 0.735309 13.607 0.803379 13.8499C1.32022 15.6947 2.51899 16.8279 4.38786 17.2501C4.55539 17.288 4.7278 17.306 4.89777 17.3333H13.1012C13.3511 17.2885 13.6063 17.264 13.8496 17.1959C15.6924 16.6799 16.8288 15.4832 17.2445 13.6163C17.3114 13.3176 17.3285 13.0029 17.3293 12.6956C17.3358 10.2336 17.3448 7.77169 17.3293 5.30975ZM9.00684 13.5687C6.49762 13.5829 4.43025 11.5188 4.43147 9.00062C4.4327 6.48488 6.46624 4.44848 8.99217 4.43422C11.5014 4.41995 13.5688 6.48366 13.5675 9.00184C13.5663 11.5176 11.5328 13.554 9.00684 13.5687ZM13.8431 5.54657C13.089 5.54413 12.4548 4.90908 12.4552 4.15664C12.4552 3.40175 13.0874 2.77241 13.8451 2.77322C14.6069 2.77363 15.231 3.39849 15.2289 4.15908C15.2273 4.91723 14.5963 5.54902 13.8431 5.54657Z" fill="#555555"/>
  <path d="M0.666016 13.1027C0.710852 13.3521 0.735309 13.6073 0.803379 13.8502C1.32022 15.695 2.51899 16.8282 4.38786 17.2505C4.55539 17.2884 4.7278 17.3063 4.89777 17.3336C3.48705 17.3336 2.07633 17.3336 0.666016 17.3336C0.666016 15.9233 0.666016 14.513 0.666016 13.1027Z" fill="white"/>
  <path d="M12.5834 9.00926C12.5768 10.991 10.9595 12.5974 8.98421 12.5844C7.0057 12.5713 5.40951 10.9654 5.41604 8.99377C5.42256 7.0124 7.04034 5.40521 9.0156 5.41866C10.9941 5.43171 12.5899 7.03767 12.5834 9.00926Z" fill="#555555"/>
  <path d="M14.244 4.15555C14.2448 4.37484 14.0594 4.56152 13.8425 4.5603C13.6277 4.55908 13.4382 4.36587 13.4414 4.15147C13.4451 3.94074 13.6261 3.76058 13.838 3.75772C14.0602 3.75487 14.2432 3.93422 14.244 4.15555Z" fill="#555555"/>
</svg>