<svg xmlns="http://www.w3.org/2000/svg" width="14" height="18" viewBox="0 0 14 18" fill="none">
  <path d="M13.4374 6.27955C13.4422 7.55319 13.2127 8.78296 12.6504 9.93376C12.0396 11.1831 11.1345 12.1429 9.80887 12.6282C8.79914 12.9987 7.76714 13.0898 6.7574 12.6066C6.49147 12.4797 6.25051 12.3015 5.98593 12.1388C5.90021 12.4682 5.80639 12.8097 5.72337 13.154C5.49794 14.0928 5.22661 15.0162 4.80813 15.8909C4.6016 16.3222 4.37954 16.7447 4.02316 17.0761C3.95634 17.1382 3.88007 17.1922 3.8011 17.2395C3.49805 17.4197 3.19702 17.336 3.033 17.0255C2.86629 16.7096 2.83389 16.364 2.82444 16.0158C2.79339 14.8238 3.01006 13.6656 3.29286 12.5141C3.61212 11.2155 3.91315 9.91148 4.2162 8.60882C4.23645 8.52107 4.22632 8.41646 4.19865 8.32939C3.86927 7.28928 3.84362 6.26943 4.41126 5.29749C4.72377 4.76293 5.17329 4.40115 5.80437 4.30193C6.69463 4.16154 7.48028 4.80342 7.54575 5.70246C7.59367 6.35245 7.41008 6.95788 7.23932 7.56804C7.08071 8.13095 6.90859 8.68981 6.75065 9.25273C6.66291 9.56523 6.67101 9.87706 6.83772 10.1666C7.12188 10.658 7.5768 10.8179 8.10934 10.77C8.73435 10.7147 9.19129 10.357 9.55914 9.87571C10.0296 9.26015 10.2901 8.55145 10.4467 7.80157C10.6046 7.0436 10.6877 6.27888 10.5756 5.5074C10.3954 4.26211 9.70021 3.41774 8.51094 3.03167C7.31087 2.64222 6.11147 2.69757 4.96945 3.2652C3.78558 3.85309 3.08565 4.83312 2.79744 6.10946C2.65165 6.75809 2.62466 7.41415 2.89194 8.04321C2.98576 8.26392 3.12345 8.4718 3.26991 8.66417C3.44473 8.89297 3.5156 9.12718 3.43798 9.40729C3.37251 9.64217 3.32053 9.88043 3.25304 10.1146C3.12075 10.5777 2.79002 10.7295 2.35265 10.5345C1.48466 10.1477 0.944694 9.46264 0.645689 8.58722C0.158372 7.16239 0.243416 5.75241 0.894073 4.39778C1.85048 2.40801 3.47105 1.26869 5.60863 0.829965C5.94138 0.761795 6.28426 0.738846 6.62241 0.693624C6.65886 0.688899 6.69463 0.676075 6.73041 0.666626H7.64227C7.82451 0.688225 8.00675 0.707798 8.18898 0.732097C9.74205 0.934583 11.0751 1.57579 12.1078 2.76776C12.9758 3.77007 13.4334 4.94584 13.4374 6.27955Z" fill="#FF782D"/>
</svg>