<svg xmlns="http://www.w3.org/2000/svg" width="17" height="18" viewBox="0 0 17 18" fill="none">
  <path d="M15.9854 15.9614C14.1299 13.254 12.2728 10.5475 10.4164 7.84056C10.3922 7.8053 10.37 7.76859 10.3398 7.72175C10.6649 7.3427 10.9885 6.96527 11.3124 6.58803C12.9957 4.62749 14.6791 2.66677 16.3624 0.70605C16.3729 0.693753 16.3813 0.679828 16.3907 0.666626H14.9611C13.2139 2.70113 11.4666 4.73582 9.69162 6.80269C9.67028 6.76417 9.65509 6.73108 9.63484 6.7016C8.27181 4.71339 6.90842 2.72555 5.54539 0.737336C5.53038 0.715273 5.51971 0.690317 5.50687 0.666626H0.666016C0.707972 0.735347 0.746672 0.806238 0.792065 0.872428C2.83796 3.85673 4.8844 6.84067 6.93085 9.82479C6.95218 9.8559 6.97262 9.88773 7.00246 9.93276C6.83626 10.1277 6.66916 10.3246 6.5008 10.5207C4.59831 12.7362 2.69564 14.9516 0.79333 17.1673C0.748119 17.2201 0.708333 17.2778 0.666016 17.3333H2.09559C2.74302 16.5757 3.38918 15.8171 4.03787 15.0606C5.19112 13.7157 6.34599 12.3718 7.50014 11.0278C7.54228 10.9786 7.58568 10.9307 7.63596 10.8733C7.66851 10.9128 7.69745 10.9431 7.72096 10.9773C9.1518 13.0634 10.5823 15.1496 12.0126 17.2362C12.0337 17.2671 12.0507 17.3009 12.0697 17.3333H16.9104C16.6023 16.8759 16.2972 16.4164 15.9854 15.9614ZM14.767 16.2972C14.15 16.2978 13.5329 16.2945 12.9159 16.3003C12.8011 16.3012 12.7304 16.2685 12.6633 16.1725C9.3491 11.4177 6.03223 6.66453 2.71589 1.9112C2.68533 1.86744 2.65748 1.82168 2.60865 1.74681C3.21394 1.74681 3.78758 1.7696 4.35833 1.73813C4.69596 1.71951 4.88205 1.83832 5.07321 2.11357C8.3116 6.77593 11.5628 11.4294 14.8112 16.0849C14.8533 16.1453 14.894 16.2066 14.9493 16.2876C14.8699 16.292 14.8186 16.2971 14.767 16.2972Z" fill="#555555"/>
</svg>