<svg xmlns="http://www.w3.org/2000/svg" width="20" height="14" viewBox="0 0 20 14" fill="none">
  <path d="M18.869 2.72926C18.6686 1.62179 17.9918 0.910872 16.9336 0.717323C16.4969 0.637155 16.0523 0.578746 15.6088 0.558704C13.728 0.473669 11.8463 0.406957 9.96492 0.333374C9.96435 0.352843 9.96378 0.372313 9.96321 0.391782C9.53058 0.391782 9.09767 0.385483 8.66534 0.392928C6.87157 0.422991 5.07752 0.442746 3.2932 0.6655C2.18344 0.80379 1.41468 1.46375 1.18363 2.56091C1.0545 3.17362 0.984066 3.8018 0.933102 4.42683C0.824016 5.76363 0.797102 7.10473 0.892159 8.44355C0.95114 9.27157 1.02673 10.1022 1.16444 10.9202C1.34511 11.9916 2.08352 12.6999 3.12313 12.8542C3.73871 12.9456 4.3603 13.0234 4.9816 13.0438C6.88875 13.1056 8.79704 13.1629 10.705 13.1723C12.607 13.1821 14.5099 13.1368 16.4044 12.9378C16.8929 12.8863 17.3742 12.8084 17.8011 12.535C18.5071 12.0829 18.8284 11.4035 18.9054 10.6055C19.0093 9.52582 19.1147 8.44355 19.1502 7.36041C19.2015 5.81059 19.1459 4.26134 18.869 2.72926ZM8.18776 9.51837V4.04545C9.77624 4.95851 11.3481 5.86213 12.9478 6.78177C11.3504 7.70027 9.77882 8.6036 8.18776 9.51837Z" fill="#555555"/>
</svg>