<svg xmlns="http://www.w3.org/2000/svg" width="481" height="220" viewBox="0 0 481 220" fill="none">
  <path d="M481.445 0H0.718045C0.084067 20.4897 6.7904 40.532 19.6282 56.5139C34.0078 73.9977 54.7226 85.08 77.247 87.3397C96.4419 89.1395 115.637 84.3892 134.911 83.9222C154.186 83.4551 175.602 88.9003 185.98 105.145C199.582 126.424 188.258 155.188 195.469 179.407C203.535 206.462 234.622 221.966 262.68 219.152C290.738 216.339 315.514 198.955 334.766 178.302C354.018 157.649 369.055 133.464 387.031 111.684C398.058 98.3326 413.927 84.7424 430.627 89.3104C446.575 93.662 453.729 112.435 454.23 128.908C454.732 145.38 451.018 162.251 455.37 178.154C459.06 191.607 468.982 202.999 481.377 209.344L481.445 0Z" fill="#6DCEAE"/>
</svg>